PathFileType	4	(X/Y/Z)	C:\Users\alexw\Dropbox\ABI\Level_8_Lab\OpenSim Tools\ProcessingTrialDataFromVicon\Output\AB08\_12Mar_ss_12ms_01\_12Mar_ss_12ms_01.trc
DataRate	CameraRate	NumFrames	NumMarkers	Units	OrigDataRate	OrigDataStartFrame	OrigNumFrames
200.000000	200.000000	8	42	mm	200.000000	3062	6093
Frame#	Time	LASI			RASI			LPSI			RPSI			LTH1			LTH2			LTH3			LTH4			LMFC			LLFC			LTB1			LTB2			LTB3			LTB4			LMMAL			LLMAL			LCAL			LToe			LMT1			LMT5			RTH1			RTH2			RTH3			RTH4			RMFC			RLFC			RTB1			RTB2			RTB3			RTB4			RMMAL			RLMAL			RCAL			RToe			RMT1			RMT5			C7			T10			LACR1			RACR1			CLAV			RBack			
		X1	Y1	Z1	X2	Y2	Z2	X3	Y3	Z3	X4	Y4	Z4	X5	Y5	Z5	X6	Y6	Z6	X7	Y7	Z7	X8	Y8	Z8	X9	Y9	Z9	X10	Y10	Z10	X11	Y11	Z11	X12	Y12	Z12	X13	Y13	Z13	X14	Y14	Z14	X15	Y15	Z15	X16	Y16	Z16	X17	Y17	Z17	X18	Y18	Z18	X19	Y19	Z19	X20	Y20	Z20	X21	Y21	Z21	X22	Y22	Z22	X23	Y23	Z23	X24	Y24	Z24	X25	Y25	Z25	X26	Y26	Z26	X27	Y27	Z27	X28	Y28	Z28	X29	Y29	Z29	X30	Y30	Z30	X31	Y31	Z31	X32	Y32	Z32	X33	Y33	Z33	X34	Y34	Z34	X35	Y35	Z35	X36	Y36	Z36	X37	Y37	Z37	X38	Y38	Z38	X39	Y39	Z39	X40	Y40	Z40	X41	Y41	Z41	X42	Y42	Z42	

3062	15.3	376.98065	988.77484	-951.51099	625.72473	992.49377	-961.15601	448.53729	1010.81310	-735.61505	573.25085	1007.96560	-733.64960	333.07712	756.24091	-1070.59350	319.75357	718.77863	-1066.42850	362.72717	672.55640	-1084.76950	349.52057	711.25031	-1080.15760	425.87039	558.08673	-1049.63720	297.38522	561.78015	-1028.34350	273.94376	468.77811	-984.10266	278.89188	396.56454	-941.50269	301.63416	375.02847	-984.70337	292.21851	413.15414	-994.66321	401.39468	195.29593	-863.65106	313.30704	191.62401	-848.96698	354.77213	164.06975	-751.81647	400.99475	48.21097	-1026.23380	420.19336	77.89053	-941.02637	302.70068	68.40022	-930.76801	614.11267	700.36182	-968.09741	596.90479	638.43677	-950.36194	638.43622	615.68042	-911.08429	651.30817	669.57745	-929.80878	500.59564	511.83026	-886.48041	625.85950	521.01086	-850.51831	626.21497	402.49100	-853.30371	612.21240	365.81528	-861.68048	598.65332	316.75397	-861.26630	629.19373	321.27417	-817.06958	503.87329	126.65736	-805.02448	587.17145	111.52386	-766.27777	529.40186	60.98152	-697.47278	559.14056	38.37495	-1000.17690	517.16821	38.53922	-907.46686	635.79364	43.61354	-875.73767	470.79373	1511.71720	-806.07849	491.83102	1259.08590	-734.05518	302.79071	1467.28220	-854.71765	624.10571	1494.78500	-869.34204	466.35617	1437.83010	-956.33063	604.45886	1418.70840	-755.85394
3063	15.305	377.50604	988.50787	-951.30005	625.91022	991.90106	-960.00494	448.34143	1010.67970	-735.02167	572.93115	1007.85820	-732.75580	334.86349	756.90936	-1071.47470	321.33853	719.52081	-1067.48570	364.69107	673.31494	-1085.45180	351.43799	711.97266	-1080.89270	426.73340	558.59302	-1050.51390	298.57455	562.36426	-1030.34630	274.74924	468.26654	-987.82648	279.44806	395.03876	-947.10132	302.44598	374.60672	-990.77551	292.82684	412.87177	-999.85956	401.33405	191.22269	-874.79340	313.21835	187.09416	-860.52161	354.56339	156.45366	-764.13416	400.90140	49.15055	-1042.14210	419.84323	76.21046	-955.96344	302.23975	66.62380	-946.02295	614.42047	699.30988	-965.20227	597.21631	637.52258	-946.90833	638.51294	615.13922	-907.23865	651.43945	668.94995	-926.36316	500.51474	511.31808	-882.34558	625.63678	520.81421	-845.92987	626.07813	402.30624	-848.15497	612.02930	365.66995	-856.48419	598.57050	316.53665	-856.01300	628.95563	321.22760	-811.61658	503.66373	126.58718	-799.11151	587.06360	111.28236	-760.59241	529.34412	61.15085	-690.98596	559.15283	38.27183	-994.09003	515.84766	40.05904	-904.30066	635.76025	43.62356	-869.65424	470.64401	1511.46010	-805.85925	491.91534	1258.93040	-733.62006	302.66116	1466.67140	-854.18811	623.87439	1494.72410	-869.50439	466.08575	1437.38280	-956.03253	604.64514	1418.71330	-755.95209
3064	15.31	377.18597	987.97260	-951.58356	626.09259	991.14166	-958.89111	448.14877	1010.42520	-734.41394	572.67004	1007.68270	-731.90485	336.76828	757.43311	-1072.17330	322.70071	720.01178	-1067.78200	366.63818	673.73468	-1085.87070	353.37851	712.43677	-1081.46860	428.55737	559.03528	-1051.44860	299.77240	562.81696	-1032.24120	275.77182	467.83490	-991.39868	280.01389	393.46661	-952.81854	302.84625	374.05591	-997.02679	293.63089	412.70825	-1005.03410	401.25018	187.15976	-886.10468	312.88263	182.76321	-871.95953	354.25583	148.56915	-777.12061	400.42194	50.43428	-1057.87920	419.55078	74.73256	-970.91345	301.70261	65.08942	-961.19202	614.72913	698.25171	-962.25427	597.63177	636.57227	-943.57147	638.66907	614.73206	-903.48810	651.51831	668.31061	-922.89203	500.35947	510.73026	-878.12762	625.38580	520.65082	-841.36035	625.86914	402.13657	-843.23260	611.80389	365.43512	-851.32758	598.35437	316.29755	-850.67120	628.73151	321.17090	-806.31451	503.45993	126.52564	-793.17517	586.69788	111.62710	-754.53131	529.26312	61.15229	-684.97247	559.07904	38.08150	-988.08777	515.86572	40.02080	-898.26825	635.76929	43.61820	-863.54468	470.51315	1511.14160	-805.68311	492.04654	1258.71230	-733.19147	302.51138	1466.00570	-853.66632	623.60889	1494.58790	-869.64105	465.78555	1436.83330	-955.75165	604.91174	1418.63000	-756.04962
3065	15.315	377.55655	987.57385	-951.22491	626.35278	990.36542	-957.86023	447.95331	1010.10310	-733.77313	572.34662	1007.48580	-730.97559	338.73712	757.91382	-1072.76860	324.49963	720.43427	-1068.72550	368.73694	674.03650	-1086.09550	355.40268	712.79285	-1082.04750	429.20065	559.19067	-1052.12840	301.04865	563.15448	-1033.92220	276.59634	467.31366	-994.90027	280.56494	391.75430	-958.36810	303.45868	373.66995	-1002.97240	294.31113	412.50943	-1010.01590	401.13824	183.12779	-897.83777	312.50116	178.54028	-883.37372	353.92307	140.98920	-790.02454	400.08853	51.94020	-1073.60300	419.14774	73.32265	-985.90912	301.33115	63.87022	-976.57037	614.96820	697.15125	-959.38354	597.80951	635.58795	-940.21191	638.73010	614.14514	-899.68402	651.61273	667.65369	-919.59253	500.27716	510.20349	-874.05481	625.15564	520.38959	-836.80817	625.59497	401.93707	-838.12457	611.61572	365.22549	-846.14545	598.33429	316.06357	-845.39105	628.44934	321.12662	-800.90869	503.37283	126.70525	-788.00970	586.46393	111.74292	-748.61707	529.15106	61.18644	-678.91785	558.77838	37.53409	-981.43103	515.80176	39.95388	-892.21436	635.76306	43.58692	-857.43683	470.38889	1510.73620	-805.47754	492.07263	1258.45670	-732.74963	302.29507	1465.25660	-853.17474	623.38721	1494.33530	-869.78320	465.46414	1436.26940	-955.51013	605.13550	1418.46020	-756.09039
3066	15.32	377.80301	987.10626	-950.85657	626.61078	989.45734	-956.78027	447.82794	1009.70770	-733.12927	572.02264	1007.20200	-730.12292	340.74442	758.12469	-1073.66880	326.29272	720.50256	-1069.48010	370.72473	674.07831	-1086.20700	357.35852	712.97375	-1081.87080	431.08743	559.33917	-1052.93630	302.30029	563.29810	-1035.40830	277.46872	466.65359	-998.16760	280.99219	390.09396	-963.84210	303.87903	373.17313	-1008.98790	295.09933	412.24319	-1014.88220	400.49298	179.16641	-908.63721	312.09799	174.33388	-894.93146	353.46719	133.75142	-802.95190	399.70303	53.62696	-1089.20750	418.86731	72.27514	-1000.98880	300.92847	62.77156	-991.98804	615.09662	696.06079	-956.55054	598.05676	634.57550	-937.08716	638.82745	613.70996	-896.10144	651.58850	666.97601	-916.27271	500.19855	509.59485	-869.97809	624.90009	520.17499	-832.30438	625.40820	401.81216	-833.14874	611.45032	365.02356	-840.99274	598.18408	315.89624	-840.11993	628.30432	321.12436	-795.50269	503.17062	126.91161	-781.90161	586.23895	111.84018	-742.62537	529.09882	61.19506	-672.88599	559.11200	37.82879	-975.95874	515.84991	39.81338	-886.15680	635.75256	43.56123	-851.33630	470.21268	1510.25840	-805.33453	492.20929	1258.08070	-732.37262	302.09586	1464.46960	-852.68909	623.15570	1494.04650	-869.99402	465.10001	1435.58370	-955.21985	605.30878	1418.22140	-756.19519
3067	15.325	377.99850	986.40607	-950.33923	626.82813	988.54999	-955.65015	447.63507	1009.16930	-732.55377	571.70221	1006.91360	-729.24725	342.75787	758.04169	-1073.37230	328.67120	720.64124	-1069.92520	372.89249	674.07471	-1086.10470	359.53107	712.76569	-1082.28420	431.73093	559.17108	-1053.27080	303.59259	563.31787	-1036.67180	278.19345	465.91748	-1001.43070	280.97742	388.18942	-969.40076	304.49609	372.55917	-1014.60880	295.64548	411.89633	-1019.53500	400.25873	175.30211	-920.33124	311.83734	170.23685	-906.69556	352.98154	126.65294	-816.10895	399.74414	55.87812	-1104.93860	418.38538	71.40113	-1015.96040	300.47009	62.03790	-1007.39370	615.36487	694.99121	-953.85571	598.38416	633.56171	-934.01416	638.78949	613.02313	-892.56384	651.59009	666.33081	-913.11267	500.00381	508.99487	-866.04944	624.60559	519.86578	-827.84241	625.28906	401.61237	-828.08978	611.30481	364.79004	-835.88910	598.08136	315.60449	-834.80212	628.09918	321.14145	-790.34174	503.51572	126.38924	-776.94049	585.95422	111.97751	-736.67047	528.95795	61.24298	-666.81067	559.10107	37.67415	-969.87921	515.88116	39.77923	-880.05725	635.96362	43.61653	-845.03699	470.06458	1509.75130	-805.16534	492.25552	1257.68020	-732.06879	301.86481	1463.59790	-852.16400	622.90363	1493.68300	-870.18243	464.67953	1434.82040	-954.95575	605.49036	1417.85860	-756.30585
3068	15.33	378.67303	985.76819	-949.40717	627.22644	987.52136	-954.71063	447.45798	1008.56220	-731.92749	571.38092	1006.52580	-728.48859	344.92834	757.82629	-1073.41360	330.63431	720.48883	-1070.34450	374.77301	673.84827	-1085.81490	361.59439	712.73492	-1081.89250	433.66614	558.99170	-1053.74570	304.92148	563.19141	-1037.81510	279.08615	464.97757	-1004.38640	281.11145	386.47156	-974.81598	304.83279	372.05521	-1020.46440	296.46680	411.50662	-1024.18180	400.03363	171.66357	-932.02271	311.58658	166.28993	-918.64899	352.44693	119.66936	-829.45758	399.35837	58.23365	-1120.37450	417.97943	70.81914	-1030.91530	299.96826	61.59175	-1022.76960	615.43433	693.85895	-951.07874	598.42554	632.51501	-930.96960	638.80682	612.47162	-889.13324	651.52045	665.63507	-909.97363	499.81439	508.30609	-862.25446	624.30896	519.61047	-823.37677	625.04211	401.40967	-823.08600	611.07086	364.50513	-830.86139	598.03088	315.48477	-829.57568	627.83575	321.05356	-784.91730	502.98877	126.57500	-770.44727	585.75537	112.14439	-730.69550	528.93329	61.24473	-660.77020	559.13220	37.52981	-963.82709	515.93451	39.67956	-874.01337	635.82196	43.58525	-839.05457	469.88297	1509.15830	-805.03662	492.32755	1257.26260	-731.68701	301.58408	1462.70140	-851.70026	622.61707	1493.19130	-870.37830	464.29004	1434.02990	-954.76086	605.68695	1417.45260	-756.42609
3069	15.335	378.28745	984.83313	-949.41577	627.59528	986.41425	-953.52881	447.17056	1007.80080	-731.31219	571.02380	1006.11530	-727.68280	346.90030	757.33276	-1073.46920	332.53012	720.24255	-1070.74410	376.95517	673.37604	-1085.36630	363.80795	712.10583	-1081.68190	435.01453	558.63861	-1054.02880	306.23291	562.90753	-1038.72130	280.02414	463.99438	-1007.38150	282.10291	384.56238	-979.56805	305.17761	371.51208	-1026.42530	297.00427	411.11752	-1028.69450	399.78412	168.05499	-943.74982	311.30334	162.49826	-930.72345	351.95087	112.97133	-842.98303	398.95413	61.00263	-1135.81100	417.53973	70.47233	-1045.80990	299.44415	61.43678	-1038.15370	615.56726	692.74121	-948.51599	598.41913	631.44855	-927.99133	638.55762	611.69806	-885.90350	651.40039	664.87122	-906.91260	499.74124	507.55029	-858.38342	624.02899	519.37006	-818.97992	624.88153	401.27472	-818.27112	610.98096	364.33398	-825.73596	597.86578	315.11340	-824.35394	627.66840	321.05588	-779.74493	502.70331	126.48315	-764.53528	585.50293	112.33309	-724.78265	528.84497	61.31853	-654.75452	559.20697	37.45997	-957.81213	516.32788	39.83506	-868.48102	635.79315	43.62623	-833.03979	469.72821	1508.52810	-804.94116	492.38364	1256.74040	-731.37524	301.33575	1461.75630	-851.24738	622.40332	1492.68960	-870.59357	463.93201	1433.16410	-954.55634	605.87646	1416.95460	-756.56012
